<svg xmlns="http://www.w3.org/2000/svg" fill="none" viewBox="0 0 309 255"><g fill-rule="evenodd" clip-path="url(#a)" clip-rule="evenodd"><path fill="#1A6D8D" d="M72.34 72.16 141.55 0l4.6 3.85c-36 37.3-30.36 105.21 13.91 134.42l-7.81 9-79.91-75.11Z"/><path fill="#28B8AF" d="M156.02 3.7c-39.8 32.93-31 100.94 14.33 132.23 3-2.68 19.46-19.35 21.67-23.35-31.62-19.47-47.34-58.9-30.07-102.73-1.73-2.1-4.43-4.26-5.93-6.15Z"/><path fill="#319597" d="m170 8.02 66.93 62.67-34.59 38.24C165.89 90.98 156.24 42.63 170 8.02Z"/><path fill="#fff" d="m52.42 199.03-.08-27.12c4.15 0 6.71-.45 8.07 2.94 1.24 3.1.83 7.06.83 10.53 0 3 .41 8.24-.68 10.66-1.52 3.39-3.86 3-8.11 3l-.03-.01Zm-12.75-27.12h4.25l.06 60.79h-4.23l-.08 1.51h16.95l-.05-1.52h-4.23c0-5.73-.24-28.27.06-32.19 11.91 0 8 1.73 8.79 22.9a18.119 18.119 0 0 0 1.21 6.65 7.82 7.82 0 0 0 4 4.13c5.15 1.88 8.48-1.27 9-6l-1.46-.25c-.65 1.71-.77 3.78-3.08 2.95-2.31-.83-1.35-6.05-1.35-8.81V211.7c0-3.46-.34-5.93-1.89-8.48-1.55-2.55-3.16-2.89-6.81-3.48a7.58 7.58 0 0 1 2.19-.86c6.43-2.33 7.55-8.85 7.19-15.34-.46-8.27-4.23-13.17-12.62-13.17h-17.8l-.1 1.54ZM129.08 192.36c3.78-1.26 5.75 2.92 6.27 6.2.56 3.56.26 8.74.26 12.5 0 6.35 1.4 19.86-4.11 21.7-3.74 1.26-6.59-2.86-6.79-5.92-.31-4.67 0-20 0-25.92 0-3.42.18-7.15 4.4-8.56h-.03Zm-4.37 1.35v-2.73c-2.16 0-10.38-.26-11.85.14 0 1.78-.51 1.38 4.22 1.38v60.72h-4.19v1.52h16v-1.48h-4.22V231.5c1 .91.55 1.23 2.87 2.57a7.198 7.198 0 0 0 4.72.77c8.59-1.2 11.44-14 11.47-22.2 0-6.15-1.47-13.83-4.62-17.62-1.64-2-3-4.06-6.61-4.67-4.02-.68-6.22 1.4-7.79 3.36ZM107.27 186.11l.24 1.1h1.38v-16.7H76.16v16.78h1.49c1.13-6.24 1.2-15.16 10.67-15.35l.08 60.8h-4.25l-.07 1.52h17l-.06-1.52h-4.28v-60.8c4.22.08 6.4 1.8 8 4.32a23.838 23.838 0 0 1 2.53 9.85ZM15.5 189.06l1 3.35.68 3.16 4 19.35H10.34l5.14-25.85.02-.01ZM.1 232.74l-.1 1.52h13.05v-1.46c-4.63-.51-6.17.59-5-6.31l1.49-7.73c.11-.809.294-1.605.55-2.38.66-.09 3.08 0 11.52 0l3.46 16.36h-4l-.07 1.52h16.6l-.06-1.52c-4.23 0-3.92.47-4.36-1.61l-10-45.64c-.73-3.31-3.12-13.48-3.46-16-2.34 0-1.83 0-2.11.72l-10 49.72c-.6 3-1.4 9.78-3.42 11.65-1.2 1.11-2.06 1.16-4.09 1.16ZM184.75 225.93v-26.15c.25-3.53 1.8-7.71 5.06-8 3.76-.34 5.49 3.16 5.76 7.56.39 6.53.4 19.56 0 26.15-.57 10.5-10.37 10.37-10.86.44h.04Zm2.88-35.4c-9.53 2.07-11.6 13.76-11 24.69.29 5.26 1.33 10.44 3.74 14.26a11.436 11.436 0 0 0 12.31 5.21c9.44-1.92 11.39-14.13 11-24.76-.34-10.27-4.55-21.9-16.05-19.4ZM239.67 200.47c0-3.63.76-7.79 3.64-8.52 4-1 5 4 5 7.39v12.62h-8.67v-11.49h.03Zm.12 24.78c-.09-1.28-.58-10.07-.16-11.64l16.3-.08v-2.92c-.19-4.622-.977-9.2-2.34-13.62-3.38-8.8-14.3-9.32-19.21-.33-3.88 7.09-5.54 31.1 5.41 37.1 4.2 2.31 9.92 1 12.24-1.64 2.32-2.64 3.63-7.55 3.94-12.3h-1.6c-2.22 19.94-13.95 14.38-14.58 5.47v-.04ZM160.51 194.19v-3.21c-2.17 0-10.39-.26-11.86.14 0 1.78-.51 1.38 4.23 1.38v40.24h-4.2v1.38l16.08.12v-1.5h-4.19c0-4.88-.26-29.91.09-33.54.26-2.72 2.16-6.6 4.21-7.06 4-.91-2.51 3.78 1 7a4.19 4.19 0 0 0 6.88-2.6c.76-5.33-5.42-7.93-9.54-5.29-1.94 1.24-1.87 2.3-2.7 2.94ZM285.66 220.58h-1.61c-.66 5.39-1.81 13.18-7.78 12.68-6.71-.57-6-10.58-6-14.51 0-3.64-.19-17.56.15-20.05 1.29-9.61 10.85-7.32 10.78-3.86-1.06.7-4.12 1.07-4 4.53a3.595 3.595 0 0 0 1.646 2.938 3.6 3.6 0 0 0 3.354.292c2.07-.75 3.05-3 2.59-5.89-1.27-7.94-12.31-7.85-16.52-3.54-3 3.09-4.62 6.16-5.56 11.82-1.14 6.81-.76 16 2 22.36 3.69 8.45 12.72 9.07 16.49 6.05 3.14-2.54 4.14-7.92 4.46-12.82ZM208.67 190.98h-.48l.06 1.52h5v33c0 4.19.39 10.06 6.91 9.51 4.64-.4 6.83-4.7 7.31-9.54h-1.57c-.45 2.45-2.3 9-4.37 6.51-.68-.84-.62-6.69-.62-9.19 0-3.83-.21-28.68.09-30.24h5v-1.48h-5.24v-11.98h-7.43v9.2a10.74 10.74 0 0 1 0 2.21v.47l-4.66.01ZM289.49 190.98H289l.07 1.52h5v33c0 4.19.39 10.06 6.91 9.51 4.63-.4 6.83-4.7 7.31-9.54h-1.57c-.45 2.45-2.3 9-4.37 6.51-.68-.84-.62-6.69-.62-9.19 0-3.83-.21-28.68.08-30.24h5v-1.48h-5.24v-11.98h-7.43v9.2a10.74 10.74 0 0 1 0 2.21v.47l-4.65.01Z"/></g><defs><clipPath id="a"><path fill="#fff" d="M0 0h308.32v254.73H0z"/></clipPath></defs></svg>
