<svg version="1.1" xmlns="http://www.w3.org/2000/svg">
	<symbol fill="none" viewBox="0 0 101 16" id="icon-arrow">
		<path fill="currentColor" d="M100.707 8.707a1 1 0 0 0 0-1.414L94.343.929a1 1 0 1 0-1.414 1.414L98.586 8l-5.657 5.657a1 1 0 0 0 1.414 1.414l6.364-6.364ZM0 9h100V7H0v2Z"/>
	</symbol>
	<symbol fill="none" viewBox="0 0 12 12" id="icon-arrow-diagonal">
		<path fill="currentColor" d="M10.055 11.055a1 1 0 0 0 1-1v-9a1 1 0 1 0-2 0v8h-8a1 1 0 1 0 0 2h9ZM.293 1.707l9.055 9.055 1.414-1.414L1.707.293.293 1.707Z"/>
	</symbol>
	<symbol fill="none" viewBox="0 0 22 22" id="icon-callback">
		<path stroke="currentColor" stroke-linecap="round" stroke-linejoin="round" stroke-width="2" d="m9.123 12.11 10.5-10.5M9.25 12.438l2.628 6.758c.232.595.348.893.514.98a.5.5 0 0 0 .462 0c.167-.087.283-.384.515-.98L19.96 2.31c.21-.537.315-.806.258-.978a.5.5 0 0 0-.316-.315c-.172-.058-.44.047-.978.257L2.036 7.863c-.595.232-.893.348-.98.515a.5.5 0 0 0 0 .462c.087.167.385.282.98.514l6.758 2.628c.121.047.182.07.233.107a.499.499 0 0 1 .116.117c.037.05.06.11.107.232Z"/>
	</symbol>
	<symbol fill="none" viewBox="0 0 24 24" id="icon-message">
		<path stroke="currentColor" stroke-linecap="round" stroke-linejoin="round" stroke-width="2" d="M7.111 8.944H12m-4.889 4.278h8.556M12 23c6.075 0 11-4.925 11-11S18.075 1 12 1 1 5.925 1 12c0 1.463.286 2.86.804 4.137.1.244.15.366.171.465.022.097.03.168.03.267 0 .101-.018.212-.055.432l-.725 4.349c-.076.455-.114.683-.043.847a.611.611 0 0 0 .32.321c.165.07.393.033.848-.043L6.7 22.05c.22-.037.33-.055.432-.055.099 0 .17.008.267.03.099.022.221.071.465.17A10.97 10.97 0 0 0 12 23Z"/>
	</symbol>
	<symbol fill="none" viewBox="0 0 1344 249" id="icon-protect">
		<path fill="currentColor" d="M0 231.578h23.888c5.972 0 8.958-2.986 8.958-8.958V25.547c0-3.097-.774-5.309-2.323-6.636-1.327-1.548-3.539-2.322-6.635-2.322H0V5.972h110.813c15.482 0 29.196 2.654 41.14 7.962 12.165 5.088 21.565 12.387 28.2 21.898 6.857 9.29 10.285 19.906 10.285 31.85 0 12.165-3.428 23.003-10.285 32.514-6.635 9.511-16.035 17.031-28.2 22.56-11.944 5.309-25.658 7.963-41.14 7.963H63.369v91.901c0 3.097.663 5.419 1.99 6.968 1.328 1.327 3.65 1.99 6.968 1.99h29.196v10.617H0v-10.617Zm115.126-111.476c11.944 0 21.565-5.087 28.864-15.261 7.52-10.396 11.28-22.782 11.28-37.16 0-14.376-3.649-26.43-10.948-36.162-7.299-9.954-17.031-14.93-29.196-14.93h-42.8c-3.096 0-5.418.774-6.966 2.322-1.328 1.327-1.991 3.539-1.991 6.636v94.555h51.757Z"/>
		<path fill="currentColor" d="M357.549 246.176c-7.299 0-13.492-1.216-18.579-3.649-4.866-2.433-8.737-6.414-11.613-11.944-5.971-11.501-9.179-31.076-9.621-58.724-.221-14.819-2.875-27.095-7.963-36.827-5.087-9.953-13.271-14.93-24.551-14.93h-36.163V222.62c0 3.097.663 5.419 1.99 6.968 1.327 1.327 3.65 1.99 6.968 1.99h29.528v10.617H185.69v-10.617h23.888c5.972 0 8.958-2.986 8.958-8.958V25.547c0-3.097-.775-5.309-2.323-6.636-1.327-1.548-3.539-2.322-6.635-2.322H185.69V5.972h108.822c21.455 0 39.039 4.092 52.752 12.276 13.713 8.183 20.57 21.786 20.57 40.808 0 16.367-6.193 29.528-18.579 39.48-12.166 9.954-26.874 15.815-44.126 17.585v1.327c12.607 2.433 22.892 8.294 30.855 17.584 8.183 9.069 13.602 24.662 16.257 46.78 1.548 12.608 2.875 21.787 3.981 27.538 1.327 5.75 2.875 9.842 4.645 12.275 1.99 2.212 4.866 3.318 8.626 3.318 9.511 0 14.266-11.944 14.266-35.832h8.294c0 14.377-2.101 27.538-6.303 39.481-4.203 11.723-13.603 17.584-28.201 17.584Zm-76.308-136.691c18.579 0 31.74-4.423 39.481-13.27 7.963-9.069 11.944-21.455 11.944-37.16 0-13.491-3.65-23.887-10.949-31.186-7.078-7.52-16.81-11.28-29.196-11.28h-34.504c-3.097 0-5.419.774-6.968 2.322-1.327 1.327-1.99 3.539-1.99 6.636v83.938h32.182ZM482.236 248.167c-18.579 0-35.168-5.861-49.766-17.584-14.598-11.723-25.989-27.095-34.173-46.117-8.183-19.242-12.275-39.37-12.275-60.382 0-21.013 4.092-41.03 12.275-60.052 8.184-19.242 19.575-34.725 34.173-46.448C447.068 5.861 463.657 0 482.236 0c18.58 0 35.168 5.861 49.767 17.584 14.598 11.723 25.988 27.205 34.172 46.448 8.184 19.022 12.276 39.039 12.276 60.052 0 21.012-4.092 41.14-12.276 60.382-8.184 19.022-19.574 34.394-34.172 46.117-14.599 11.723-31.187 17.584-49.767 17.584Zm0-10.617c21.676 0 37.27-9.842 46.781-29.528 9.51-19.906 14.266-47.886 14.266-83.938 0-36.274-4.756-64.254-14.266-83.94-9.511-19.685-25.105-29.527-46.781-29.527s-37.269 9.842-46.78 29.528c-9.511 19.685-14.266 47.665-14.266 83.939 0 36.052 4.755 64.032 14.266 83.938 9.511 19.686 25.104 29.528 46.78 29.528ZM620.983 231.578h31.85c5.972 0 8.958-2.986 8.958-8.958V24.551c0-3.096-.664-5.308-1.991-6.635-1.327-1.549-3.649-2.323-6.967-2.323h-11.944c-13.934 0-25.989 7.078-36.163 21.234-6.414 9.068-10.728 20.46-12.939 34.173-2.212 13.492-3.318 23.445-3.318 29.859h-9.29l2.654-94.887h190.439l2.654 94.887h-9.29c0-6.414-1.106-16.367-3.317-29.86-2.212-13.713-6.525-25.104-12.94-34.172-10.174-14.156-22.229-21.234-36.163-21.234h-11.944c-3.318 0-5.64.774-6.967 2.323-1.327 1.327-1.991 3.539-1.991 6.635V222.62c0 5.972 2.986 8.958 8.958 8.958h31.85v10.617H620.983v-10.617Z"/>
		<path fill="currentColor" d="M772.891 231.578h23.888c5.972 0 8.958-2.986 8.958-8.958V25.547c0-3.097-.774-5.309-2.323-6.636-1.327-1.548-3.538-2.322-6.635-2.322h-23.888V5.972h185.13l1.327 82.943h-8.294c0-4.423-.995-11.943-2.986-22.56-1.769-10.617-5.419-20.128-10.949-28.533C927.83 23.667 914.78 16.59 897.97 16.59h-52.752c-3.097 0-5.419.774-6.967 2.322-1.327 1.327-1.991 3.539-1.991 6.636v89.247h25.547c11.28 0 19.353-5.751 24.219-17.252 5.087-11.502 7.631-23.778 7.631-36.827h8.626V179.49h-8.626c0-13.05-2.544-25.326-7.631-36.827-4.866-11.502-12.939-17.252-24.219-17.252H836.26v97.209c0 5.972 2.986 8.958 8.958 8.958h53.084c6.414 0 12.939-1.437 19.575-4.313 6.635-2.875 12.275-7.299 16.92-13.271 4.424-6.193 8.073-13.934 10.949-23.224 2.875-9.29 4.866-17.694 5.972-25.215 1.105-7.741 1.769-12.718 1.99-14.93h8.295l-3.982 91.57h-185.13v-10.617ZM1063 248.167c-20.57 0-38.26-5.972-53.08-17.916-14.819-11.944-26.099-27.537-33.84-46.78-7.521-19.464-11.281-39.923-11.281-61.378 0-22.34 3.76-42.799 11.281-61.378 7.52-18.58 18.247-33.288 32.18-44.126C1022.2 5.529 1038.45 0 1057.03 0c9.73 0 18.91 2.212 27.54 6.635 8.63 4.424 15.7 9.18 21.23 14.267 5.31 4.866 8.85 7.299 10.62 7.299 1.77 0 2.99-.553 3.65-1.66.88-1.105 1.77-2.874 2.65-5.307l6.31-18.58h8.29l1.33 102.85h-9.29c-4.87-21.012-11.17-38.596-18.91-52.752-7.74-14.377-16.26-24.994-25.55-31.85-9.07-6.857-18.14-10.285-27.2-10.285-21.02 0-35.95 9.51-44.79 28.532-8.63 19.022-12.943 46.67-12.943 82.944 0 37.38 4.533 66.023 13.603 85.929 9.07 19.686 25.55 29.528 49.43 29.528 21.24 0 37.38-7.852 48.44-23.556 11.28-15.925 17.7-35.168 19.25-57.728h11.94c-.66 13.049-3.43 26.542-8.29 40.476-4.65 13.935-12.83 25.989-24.56 36.163-11.72 10.175-27.31 15.262-46.78 15.262ZM1189.72 231.578h31.85c5.97 0 8.95-2.986 8.95-8.958V24.551c0-3.096-.66-5.308-1.99-6.635-1.32-1.549-3.65-2.323-6.96-2.323h-11.95c-13.93 0-25.99 7.078-36.16 21.234-6.41 9.068-10.73 20.46-12.94 34.173-2.21 13.492-3.32 23.445-3.32 29.859h-9.29l2.66-94.887h190.44l2.65 94.887h-9.29c0-6.414-1.11-16.367-3.32-29.86-2.21-13.713-6.52-25.104-12.94-34.172-10.17-14.156-22.23-21.234-36.16-21.234h-11.94c-3.32 0-5.64.774-6.97 2.323-1.33 1.327-1.99 3.539-1.99 6.635V222.62c0 5.972 2.98 8.958 8.96 8.958h31.85v10.617h-112.14v-10.617Z"/>
	</symbol>
</svg>
