<svg version="1.1" xmlns="http://www.w3.org/2000/svg">
	<symbol fill="none" viewBox="0 0 101 16" id="icon-arrow">
		<path fill="currentColor" d="M100.707 8.707a1 1 0 0 0 0-1.414L94.343.929a1 1 0 1 0-1.414 1.414L98.586 8l-5.657 5.657a1 1 0 0 0 1.414 1.414l6.364-6.364ZM0 9h100V7H0v2Z"/>
	</symbol>
	<symbol fill="none" viewBox="0 0 12 12" id="icon-arrow-diagonal">
		<path fill="currentColor" d="M10.055 11.055a1 1 0 0 0 1-1v-9a1 1 0 1 0-2 0v8h-8a1 1 0 1 0 0 2h9ZM.293 1.707l9.055 9.055 1.414-1.414L1.707.293.293 1.707Z"/>
	</symbol>
	<symbol fill="none" viewBox="0 0 39 41" id="icon-art">
		<path fill="currentColor" fill-rule="evenodd" d="M12.555 40.177c-1.172-.008-2.46-.227-3.855-.684C1.751 36.9-.557 30.1.11 20.879.944 9.727 12.15-.569 26.75 3.09c.673.17 1.33.39 1.967.65l1.17.577 1.232-1.038A45.335 45.335 0 0 1 35.767.103c.572-.34 1.267.22 1.045.852a40.319 40.319 0 0 1-2.123 4.996l-.724 1.31.904.95c4.967 5.702 5.88 14.206-1.816 17.514l-.044.017c-4.574 1.639-7.428 1.979-9.505 2.833-1.799.74-2.787 1.782-3.228 4.91l-.01.046c-.78 3.847-3.307 6.455-7.214 6.635-.164.008-.328.01-.496.01Zm-.065-1.546c.14.003.277.002.415-.004 3.253-.118 5.204-2.266 5.84-5.405l.218-1.199c.613-2.702 1.847-4.018 3.95-4.884 1.882-.774 4.542-1.214 8.026-2.334l1.512-.514 1.576-.856c4.856-3.3 3.61-9.912-.525-14.446l-.342-.338-1.166 1.816c-1.988 2.882-4.364 5.535-7.14 8.144l-.935.86-.733 1.42c-.83 1.364-1.92 2.515-3.243 3.472l-.3.202.039.186c.48 2.796-.453 4.678-2.275 5.634-.916.484-2.008.708-3.159.744a11.98 11.98 0 0 1-1.766-.079l-1.403-.247-.032.318a3.069 3.069 0 0 1-3.001 2.45 3.067 3.067 0 0 1 0-6.134c1.268 0 2.357.774 2.822 1.874l.003.011.024-.005c.54.028 1.044-.122 1.34-.356.248-.195.38-.459.254-.895-.678-2.144-.55-3.712.433-4.748.686-.725 1.686-1.059 2.704-1.236l.704-.093.179-.515c.638-1.624 1.575-2.912 2.742-3.932l1.227-.924.49-.983c1.724-3.337 3.755-6.221 6.189-8.769l1.497-1.456-1.055-.437c-.401-.146-.81-.272-1.225-.378-13.627-3.414-23.95 6.166-24.718 16.4-.65 9.002 1.638 14.824 7.56 17.032 1.202.396 2.293.588 3.274.604ZM8.046 32.02a1.516 1.516 0 0 0 0-3.03 1.516 1.516 0 0 0 0 3.03Zm5.881-2.33 2.21-.316.278-.102.32-.153c1.168-.613 1.935-1.81 1.535-4.124l-.055-.268-.845-.723-.21.116-1.026.95c-.383.534-.688 1.284-.83 2.376a.72.72 0 0 1-.66.624h-.138a.729.729 0 0 1-.626-.81c.166-1.273.538-2.257 1.086-3.025l.56-.633-.647.146c-.39.142-.696.324-.917.558-.439.465-.73 1.364-.101 3.344.226.777.083 1.456-.29 1.973l-.063.067h.42Zm-6.973-4.264a3.505 3.505 0 0 1 0-7.01 3.505 3.505 0 0 1 0 7.01Zm0-1.552a1.953 1.953 0 0 0 0-3.904 1.951 1.951 0 0 0 0 3.904Zm11.89-.499.266-.179.942-.76.542-.547-1.856-1.586-.505.83-.538 1.263 1.148.98Zm2.675-2.581.119-.15.618-1.02.125-.256-1.535-1.256-.21.148-.915.81-.088.105 1.886 1.619Zm10.75-.899a2.774 2.774 0 0 1-2.772-2.776c0-1.53 1.24-2.775 2.773-2.775a2.775 2.775 0 0 1 0 5.551Zm0-1.552c.673 0 1.22-.545 1.22-1.224 0-.676-.547-1.223-1.22-1.223a1.223 1.223 0 0 0 0 2.447Zm-9.075-.161 1.614-1.512c3.435-3.356 6.174-6.798 8.271-10.734l1.562-3.408-1.508 1.03c-4.723 3.44-8.218 7.534-10.934 12.817l-.35.707 1.345 1.1Zm-11.948-1.414a3.503 3.503 0 0 1 0-7.008 3.505 3.505 0 0 1 0 7.008Zm0-1.552a1.953 1.953 0 0 0 0-3.904 1.952 1.952 0 0 0 0 3.904Zm8.22-2.74a3.504 3.504 0 0 1 0-7.008 3.504 3.504 0 0 1 0 7.008Zm0-1.552a1.953 1.953 0 0 0 0-3.904 1.951 1.951 0 0 0 0 3.904Z" clip-rule="evenodd"/>
	</symbol>
	<symbol fill="none" viewBox="0 0 22 22" id="icon-callback">
		<path stroke="currentColor" stroke-linecap="round" stroke-linejoin="round" stroke-width="2" d="m9.123 12.11 10.5-10.5M9.25 12.438l2.628 6.758c.232.595.348.893.514.98a.5.5 0 0 0 .462 0c.167-.087.283-.384.515-.98L19.96 2.31c.21-.537.315-.806.258-.978a.5.5 0 0 0-.316-.315c-.172-.058-.44.047-.978.257L2.036 7.863c-.595.232-.893.348-.98.515a.5.5 0 0 0 0 .462c.087.167.385.282.98.514l6.758 2.628c.121.047.182.07.233.107a.499.499 0 0 1 .116.117c.037.05.06.11.107.232Z"/>
	</symbol>
	<symbol fill="none" viewBox="0 0 39 36" id="icon-court">
		<path fill="currentColor" fill-rule="evenodd" d="M24.63 36a1.528 1.528 0 0 1-.971-.331 1.213 1.213 0 0 1-.465-.945v-1.985h-.161a1.61 1.61 0 0 1-1.611-1.61v-4.002c0-.887.721-1.61 1.61-1.61H37.39c.888 0 1.611.723 1.611 1.61v4.002c0 .889-.723 1.61-1.61 1.61h-.163v1.985c0 .425-.227.756-.477.954-.25.198-.56.303-.871.32-.03.002-.058.002-.087.002H24.63Zm-21.533-.304c-.893.03-1.72-.416-2.263-1.027-.82-.919-1.292-2.554-.177-3.755l2.731-2.73 13.398-13.321-5.466-5.464a2.33 2.33 0 0 1 0-3.298L16.742.683a2.335 2.335 0 0 1 3.301 0l5.31 5.31.733-.73.067-.06c1.619-1.289 3.418-.723 4.467.453 1.022 1.145 1.437 2.991.217 4.305l-.754.759 4.503 4.498a2.33 2.33 0 0 1 0 3.299l-5.423 5.417a2.33 2.33 0 0 1-1.65.682 2.328 2.328 0 0 1-1.65-.682l-4.956-4.953-16.11 16.02-.069.06c-.536.428-1.096.617-1.631.635Zm32.487-1.337V32.78H24.836v1.578h10.748ZM3.05 34.05c.072-.005.145-.017.219-.04l.42-.224 1.514-1.504-1.746-1.849-1.603 1.595-.168.3c-.106.35-.01.82.375 1.25.224.25.491.416.774.461.071.011.142.015.215.011Zm3.317-2.926.6-.598-1.744-1.849-.602.599 1.746 1.848Zm30.991-.026v-3.939H23.064v3.939h14.293Zm-29.225-1.73 11.552-11.485-1.785-1.81L6.387 27.519l1.745 1.849Zm19.381-6.394a.69.69 0 0 0 .488-.2l5.424-5.419c.27-.269.268-.709 0-.976l-1.324-1.324-6.4 6.395 1.325 1.323c.133.134.31.2.487.2Zm-2.973-2.685 6.399-6.395-9.99-9.983-6.401 6.395 9.992 9.983Zm4.385-10.727.717-.715.155-.218c.297-.55.1-1.316-.402-1.88-.515-.575-1.273-.891-2.06-.376l-.136.097-.686.681 2.412 2.41Zm-15.54-.417 6.402-6.395-.906-.907a.693.693 0 0 0-.977 0L12.48 7.263a.693.693 0 0 0 0 .976l.906.907Z" clip-rule="evenodd"/>
	</symbol>
	<symbol fill="none" viewBox="0 0 31 38" id="icon-intruder">
		<path fill="currentColor" fill-rule="evenodd" d="M.728 38A.73.73 0 0 1 0 37.268v-7.65l.001-.05c.134-1.969 1.04-3.761 3.12-5.241l6.87-4.553-.257-.175c-2.584-1.942-4.26-5.218-4.26-8.874C5.475 4.877 9.765 0 15.199 0c5.432 0 9.722 4.877 9.722 10.725 0 3.29-1.358 6.273-3.512 8.253l-.71.59 7.18 4.759c2.08 1.48 2.986 3.272 3.12 5.24a.92.92 0 0 1 .002.05v7.65a.731.731 0 0 1-.728.733H.728Zm4.946-1.465v-2.368H1.457v2.368h4.217Zm17.482 0v-2.368H7.131v2.368h16.025Zm6.387 0v-2.368h-4.93v2.368h4.93Zm0-3.833v-2.826H1.74l-.284-.057v2.883h28.087ZM1.707 28.418l.032-.007h27.549l-.07-.256a5.159 5.159 0 0 0-1.18-1.79l-.89-.748-.061.011h-6.71l-.063.116c-1.07 1.57-2.807 2.441-4.592 2.521-1.801.082-3.594-.637-4.763-2.138l-.324-.517-.091.018h-6.71l-.874.737a5.162 5.162 0 0 0-1.18 1.79l-.073.263Zm13.948-1.616c2.262-.102 4.543-1.869 4.252-5.375l-.087-.686-.047-.03a.712.712 0 0 1-.205-.206l-.071-.17-.489.263a8.921 8.921 0 0 1-3.81.852 8.93 8.93 0 0 1-3.812-.852l-.031-.017-.13.13-.11.072.017.162c-.429 4.209 2.131 5.965 4.523 5.857Zm-5.682-2.638-.08-.212a7.63 7.63 0 0 1-.235-1.368l-.028-.816-3.615 2.396h3.958Zm15.01 0-3.608-2.392.013.41a7.4 7.4 0 0 1-.149 1.348l-.195.634h3.94Zm-9.785-4.178c4.493 0 8.265-4.079 8.265-9.261 0-5.181-3.772-9.26-8.265-9.26-4.496 0-8.266 4.079-8.266 9.26 0 5.182 3.77 9.26 8.266 9.26Zm-3.283-8.384a1.895 1.895 0 0 1-1.218-.462c-.466-.397-.772-1.002-.92-1.741l-.005-.053h-.974a.73.73 0 0 1-.728-.732c0-.404.326-.733.728-.733h5.084c.454 0 .798.416.716.866-.27 1.463-1.145 2.575-2.248 2.812-.144.03-.29.045-.435.043Zm6.696 0a1.92 1.92 0 0 1-.433-.043c-1.097-.235-1.978-1.34-2.249-2.812a.732.732 0 0 1 .717-.866h5.084a.732.732 0 0 1 0 1.465h-.975l-.005.053c-.147.739-.453 1.344-.92 1.74a1.899 1.899 0 0 1-1.22.463Zm-6.674-1.463a.526.526 0 0 0 .11-.013c.22-.047.524-.252.77-.665l.063-.115h-1.617l.034.11c.102.302.233.474.34.565a.448.448 0 0 0 .3.118Zm6.652 0a.455.455 0 0 0 .302-.118c.106-.091.237-.263.34-.565l.033-.11h-1.618l.066.12c.247.412.55.613.769.66a.518.518 0 0 0 .107.013Z" clip-rule="evenodd"/>
	</symbol>
	<symbol fill="none" viewBox="0 0 24 24" id="icon-message">
		<path stroke="currentColor" stroke-linecap="round" stroke-linejoin="round" stroke-width="2" d="M7.111 8.944H12m-4.889 4.278h8.556M12 23c6.075 0 11-4.925 11-11S18.075 1 12 1 1 5.925 1 12c0 1.463.286 2.86.804 4.137.1.244.15.366.171.465.022.097.03.168.03.267 0 .101-.018.212-.055.432l-.725 4.349c-.076.455-.114.683-.043.847a.611.611 0 0 0 .32.321c.165.07.393.033.848-.043L6.7 22.05c.22-.037.33-.055.432-.055.099 0 .17.008.267.03.099.022.221.071.465.17A10.97 10.97 0 0 0 12 23Z"/>
	</symbol>
	<symbol fill="none" viewBox="0 0 24 24" id="icon-play">
		<path fill="currentColor" fill-rule="evenodd" d="M12 22c5.523 0 10-4.477 10-10S17.523 2 12 2 2 6.477 2 12s4.477 10 10 10Zm-1.306-6.154 4.72-2.787c.781-.462.781-1.656 0-2.118l-4.72-2.787C9.934 7.706 9 8.29 9 9.214v5.573c0 .923.934 1.507 1.694 1.059Z" clip-rule="evenodd"/>
	</symbol>
	<symbol fill="none" viewBox="0 0 1344 249" id="icon-protect">
		<path fill="currentColor" d="M0 231.578h23.888c5.972 0 8.958-2.986 8.958-8.958V25.547c0-3.097-.774-5.309-2.323-6.636-1.327-1.548-3.539-2.322-6.635-2.322H0V5.972h110.813c15.482 0 29.196 2.654 41.14 7.962 12.165 5.088 21.565 12.387 28.2 21.898 6.857 9.29 10.285 19.906 10.285 31.85 0 12.165-3.428 23.003-10.285 32.514-6.635 9.511-16.035 17.031-28.2 22.56-11.944 5.309-25.658 7.963-41.14 7.963H63.369v91.901c0 3.097.663 5.419 1.99 6.968 1.328 1.327 3.65 1.99 6.968 1.99h29.196v10.617H0v-10.617Zm115.126-111.476c11.944 0 21.565-5.087 28.864-15.261 7.52-10.396 11.28-22.782 11.28-37.16 0-14.376-3.649-26.43-10.948-36.162-7.299-9.954-17.031-14.93-29.196-14.93h-42.8c-3.096 0-5.418.774-6.966 2.322-1.328 1.327-1.991 3.539-1.991 6.636v94.555h51.757Z"/>
		<path fill="currentColor" d="M357.549 246.176c-7.299 0-13.492-1.216-18.579-3.649-4.866-2.433-8.737-6.414-11.613-11.944-5.971-11.501-9.179-31.076-9.621-58.724-.221-14.819-2.875-27.095-7.963-36.827-5.087-9.953-13.271-14.93-24.551-14.93h-36.163V222.62c0 3.097.663 5.419 1.99 6.968 1.327 1.327 3.65 1.99 6.968 1.99h29.528v10.617H185.69v-10.617h23.888c5.972 0 8.958-2.986 8.958-8.958V25.547c0-3.097-.775-5.309-2.323-6.636-1.327-1.548-3.539-2.322-6.635-2.322H185.69V5.972h108.822c21.455 0 39.039 4.092 52.752 12.276 13.713 8.183 20.57 21.786 20.57 40.808 0 16.367-6.193 29.528-18.579 39.48-12.166 9.954-26.874 15.815-44.126 17.585v1.327c12.607 2.433 22.892 8.294 30.855 17.584 8.183 9.069 13.602 24.662 16.257 46.78 1.548 12.608 2.875 21.787 3.981 27.538 1.327 5.75 2.875 9.842 4.645 12.275 1.99 2.212 4.866 3.318 8.626 3.318 9.511 0 14.266-11.944 14.266-35.832h8.294c0 14.377-2.101 27.538-6.303 39.481-4.203 11.723-13.603 17.584-28.201 17.584Zm-76.308-136.691c18.579 0 31.74-4.423 39.481-13.27 7.963-9.069 11.944-21.455 11.944-37.16 0-13.491-3.65-23.887-10.949-31.186-7.078-7.52-16.81-11.28-29.196-11.28h-34.504c-3.097 0-5.419.774-6.968 2.322-1.327 1.327-1.99 3.539-1.99 6.636v83.938h32.182ZM482.236 248.167c-18.579 0-35.168-5.861-49.766-17.584-14.598-11.723-25.989-27.095-34.173-46.117-8.183-19.242-12.275-39.37-12.275-60.382 0-21.013 4.092-41.03 12.275-60.052 8.184-19.242 19.575-34.725 34.173-46.448C447.068 5.861 463.657 0 482.236 0c18.58 0 35.168 5.861 49.767 17.584 14.598 11.723 25.988 27.205 34.172 46.448 8.184 19.022 12.276 39.039 12.276 60.052 0 21.012-4.092 41.14-12.276 60.382-8.184 19.022-19.574 34.394-34.172 46.117-14.599 11.723-31.187 17.584-49.767 17.584Zm0-10.617c21.676 0 37.27-9.842 46.781-29.528 9.51-19.906 14.266-47.886 14.266-83.938 0-36.274-4.756-64.254-14.266-83.94-9.511-19.685-25.105-29.527-46.781-29.527s-37.269 9.842-46.78 29.528c-9.511 19.685-14.266 47.665-14.266 83.939 0 36.052 4.755 64.032 14.266 83.938 9.511 19.686 25.104 29.528 46.78 29.528ZM620.983 231.578h31.85c5.972 0 8.958-2.986 8.958-8.958V24.551c0-3.096-.664-5.308-1.991-6.635-1.327-1.549-3.649-2.323-6.967-2.323h-11.944c-13.934 0-25.989 7.078-36.163 21.234-6.414 9.068-10.728 20.46-12.939 34.173-2.212 13.492-3.318 23.445-3.318 29.859h-9.29l2.654-94.887h190.439l2.654 94.887h-9.29c0-6.414-1.106-16.367-3.317-29.86-2.212-13.713-6.525-25.104-12.94-34.172-10.174-14.156-22.229-21.234-36.163-21.234h-11.944c-3.318 0-5.64.774-6.967 2.323-1.327 1.327-1.991 3.539-1.991 6.635V222.62c0 5.972 2.986 8.958 8.958 8.958h31.85v10.617H620.983v-10.617Z"/>
		<path fill="currentColor" d="M772.891 231.578h23.888c5.972 0 8.958-2.986 8.958-8.958V25.547c0-3.097-.774-5.309-2.323-6.636-1.327-1.548-3.538-2.322-6.635-2.322h-23.888V5.972h185.13l1.327 82.943h-8.294c0-4.423-.995-11.943-2.986-22.56-1.769-10.617-5.419-20.128-10.949-28.533C927.83 23.667 914.78 16.59 897.97 16.59h-52.752c-3.097 0-5.419.774-6.967 2.322-1.327 1.327-1.991 3.539-1.991 6.636v89.247h25.547c11.28 0 19.353-5.751 24.219-17.252 5.087-11.502 7.631-23.778 7.631-36.827h8.626V179.49h-8.626c0-13.05-2.544-25.326-7.631-36.827-4.866-11.502-12.939-17.252-24.219-17.252H836.26v97.209c0 5.972 2.986 8.958 8.958 8.958h53.084c6.414 0 12.939-1.437 19.575-4.313 6.635-2.875 12.275-7.299 16.92-13.271 4.424-6.193 8.073-13.934 10.949-23.224 2.875-9.29 4.866-17.694 5.972-25.215 1.105-7.741 1.769-12.718 1.99-14.93h8.295l-3.982 91.57h-185.13v-10.617ZM1063 248.167c-20.57 0-38.26-5.972-53.08-17.916-14.819-11.944-26.099-27.537-33.84-46.78-7.521-19.464-11.281-39.923-11.281-61.378 0-22.34 3.76-42.799 11.281-61.378 7.52-18.58 18.247-33.288 32.18-44.126C1022.2 5.529 1038.45 0 1057.03 0c9.73 0 18.91 2.212 27.54 6.635 8.63 4.424 15.7 9.18 21.23 14.267 5.31 4.866 8.85 7.299 10.62 7.299 1.77 0 2.99-.553 3.65-1.66.88-1.105 1.77-2.874 2.65-5.307l6.31-18.58h8.29l1.33 102.85h-9.29c-4.87-21.012-11.17-38.596-18.91-52.752-7.74-14.377-16.26-24.994-25.55-31.85-9.07-6.857-18.14-10.285-27.2-10.285-21.02 0-35.95 9.51-44.79 28.532-8.63 19.022-12.943 46.67-12.943 82.944 0 37.38 4.533 66.023 13.603 85.929 9.07 19.686 25.55 29.528 49.43 29.528 21.24 0 37.38-7.852 48.44-23.556 11.28-15.925 17.7-35.168 19.25-57.728h11.94c-.66 13.049-3.43 26.542-8.29 40.476-4.65 13.935-12.83 25.989-24.56 36.163-11.72 10.175-27.31 15.262-46.78 15.262ZM1189.72 231.578h31.85c5.97 0 8.95-2.986 8.95-8.958V24.551c0-3.096-.66-5.308-1.99-6.635-1.32-1.549-3.65-2.323-6.96-2.323h-11.95c-13.93 0-25.99 7.078-36.16 21.234-6.41 9.068-10.73 20.46-12.94 34.173-2.21 13.492-3.32 23.445-3.32 29.859h-9.29l2.66-94.887h190.44l2.65 94.887h-9.29c0-6.414-1.11-16.367-3.32-29.86-2.21-13.713-6.52-25.104-12.94-34.172-10.17-14.156-22.23-21.234-36.16-21.234h-11.94c-3.32 0-5.64.774-6.97 2.323-1.33 1.327-1.99 3.539-1.99 6.635V222.62c0 5.972 2.98 8.958 8.96 8.958h31.85v10.617h-112.14v-10.617Z"/>
	</symbol>
	<symbol fill="none" viewBox="0 0 31 38" id="icon-shield">
		<path stroke="currentColor" stroke-linecap="round" stroke-linejoin="round" stroke-width="2" d="m10.063 18.155 3.624 3.637 8.157-8.184M30 19.064c0 8.927-9.704 15.42-13.235 17.487-.401.235-.602.353-.885.413-.22.048-.54.048-.76 0-.283-.06-.484-.178-.885-.413C10.705 34.484 1 27.991 1 19.064v-8.698c0-1.454 0-2.181.237-2.806.21-.552.55-1.045.991-1.436.5-.442 1.179-.697 2.535-1.208l9.719-3.657c.377-.141.565-.212.759-.24.172-.025.346-.025.518 0 .194.028.382.099.76.24l9.718 3.657c1.356.511 2.035.766 2.535 1.208.441.391.782.884.991 1.436.237.625.237 1.352.237 2.806v8.698Z"/>
	</symbol>
	<symbol viewBox="0 0 13 12" id="icon-star">
		<path fill="currentColor" d="m6.5 0 1.534 4.584H13L8.983 7.416 10.517 12 6.5 9.167 2.483 12l1.534-4.584L0 4.584h4.966L6.5 0Z"/>
	</symbol>
</svg>
