<svg version="1.1" xmlns="http://www.w3.org/2000/svg">
	<symbol fill="none" viewBox="0 0 22 22" id="icon-callback">
		<path stroke="currentColor" stroke-linecap="round" stroke-linejoin="round" stroke-width="2" d="m9.123 12.11 10.5-10.5M9.25 12.438l2.628 6.758c.232.595.348.893.514.98a.5.5 0 0 0 .462 0c.167-.087.283-.384.515-.98L19.96 2.31c.21-.537.315-.806.258-.978a.5.5 0 0 0-.316-.315c-.172-.058-.44.047-.978.257L2.036 7.863c-.595.232-.893.348-.98.515a.5.5 0 0 0 0 .462c.087.167.385.282.98.514l6.758 2.628c.121.047.182.07.233.107a.499.499 0 0 1 .116.117c.037.05.06.11.107.232Z"/>
	</symbol>
</svg>
